<?xml version="1.0" encoding="UTF-8"?>
<svg xmlns="http://www.w3.org/2000/svg" xmlns:xlink="http://www.w3.org/1999/xlink" width="72pt" height="18pt" viewBox="0 0 72 18" version="1.1">
<g id="surface179">
<rect x="0" y="0" width="72" height="18" style="fill:rgb(100%,100%,100%);fill-opacity:1;stroke:none;"/>
<path style="fill:none;stroke-width:1.066978;stroke-linecap:butt;stroke-linejoin:round;stroke:rgb(97.254902%,46.27451%,42.745098%);stroke-opacity:1;stroke-miterlimit:10;" d="M 3.273438 12.507812 L 5.652344 11.335938 L 6.605469 5.6875 L 7.796875 9.390625 L 8.03125 7.441406 L 8.746094 6.855469 L 8.984375 7.441406 L 9.222656 5.394531 L 10.175781 7.832031 L 10.414062 4.910156 L 10.652344 11.726562 L 10.890625 5.882812 L 11.367188 9.875 L 11.601562 8.609375 L 11.839844 9 L 12.316406 7.832031 L 12.554688 7.976562 L 13.03125 9.84375 L 13.269531 4.714844 L 13.507812 9.488281 L 13.746094 9 L 13.984375 7.441406 L 14.222656 5.589844 L 14.460938 6.664062 L 14.699219 6.46875 L 14.933594 10.167969 L 15.410156 6.175781 L 15.648438 6.921875 L 16.125 6.273438 L 16.363281 6.726562 L 16.601562 7.3125 L 16.839844 7.324219 L 17.078125 6.46875 L 17.554688 8.757812 L 17.792969 5.589844 L 18.03125 5.296875 L 18.503906 7.832031 L 18.742188 6.726562 L 18.980469 5.6875 L 19.21875 7.117188 L 19.457031 7.050781 L 19.695312 8.089844 L 19.933594 6.273438 L 20.171875 4.195312 L 20.410156 2.570312 L 20.886719 9 L 21.125 6.664062 L 21.363281 7.199219 L 21.601562 5.492188 L 22.3125 5.882812 L 22.550781 7.507812 L 22.789062 7.148438 L 23.265625 6.855469 L 23.503906 6.855469 L 23.742188 9.585938 L 23.980469 6.371094 L 24.21875 7.929688 L 24.457031 3.742188 L 24.695312 7.050781 L 25.171875 2.375 L 25.410156 6.566406 L 25.644531 6.855469 L 25.882812 7.636719 L 26.359375 4.910156 L 26.835938 4.03125 L 27.074219 5.492188 L 27.3125 5.6875 L 27.550781 1.402344 L 28.027344 2.375 L 28.503906 7.050781 L 28.742188 6.664062 L 28.976562 8.414062 L 29.453125 5.296875 L 29.691406 6.175781 L 31.835938 5.980469 L 35.40625 3.15625 L 35.882812 5.882812 L 36.355469 0.816406 "/>
<path style="fill:none;stroke-width:1.066978;stroke-linecap:butt;stroke-linejoin:round;stroke:rgb(0%,72.941176%,21.960784%);stroke-opacity:1;stroke-miterlimit:10;" d="M 24.21875 10.363281 L 27.789062 9 L 28.027344 9.585938 L 29.691406 10.363281 L 30.40625 7.441406 L 34.453125 9.195312 L 34.929688 6.273438 L 35.167969 9.585938 L 35.40625 4.910156 L 35.644531 9.292969 L 36.117188 9.390625 L 36.355469 5.882812 L 36.832031 8.609375 L 37.308594 7.246094 L 37.546875 7.832031 L 37.785156 8.027344 L 38.023438 7.832031 L 38.261719 10.558594 L 38.5 10.363281 L 38.738281 9 L 39.925781 9.972656 L 40.164062 7.050781 L 41.355469 10.753906 L 42.308594 8.609375 L 43.496094 4.617188 L 43.972656 7.246094 L 44.210938 3.933594 L 44.6875 5.6875 L 44.925781 7.246094 L 45.164062 6.46875 L 45.402344 9 L 45.878906 4.714844 L 46.117188 7.832031 L 46.355469 6.175781 L 46.589844 3.742188 L 47.066406 5.6875 L 47.304688 4.910156 L 47.542969 4.324219 L 47.78125 6.175781 L 48.019531 6.664062 L 48.257812 6.078125 L 48.972656 5.492188 L 49.210938 5.6875 L 49.449219 6.273438 L 49.925781 3.15625 L 50.398438 4.714844 L 50.636719 5.167969 L 51.113281 6.078125 L 52.304688 4.128906 L 52.542969 3.742188 L 54.207031 3.933594 L 55.875 2.183594 L 59.683594 4.128906 L 64.917969 8.027344 "/>
<path style="fill:none;stroke-width:1.066978;stroke-linecap:butt;stroke-linejoin:round;stroke:rgb(38.039216%,61.176471%,100%);stroke-opacity:1;stroke-miterlimit:10;" d="M 24.21875 16.011719 L 26.121094 14.066406 L 26.835938 16.402344 L 28.265625 16.011719 L 28.503906 16.011719 L 28.742188 15.039062 L 28.976562 17.183594 L 29.691406 14.453125 L 29.929688 16.011719 L 30.167969 14.648438 L 30.40625 14.066406 L 30.644531 15.625 L 31.121094 15.625 L 31.597656 16.207031 L 32.546875 9 L 32.785156 13.675781 L 33.738281 16.304688 L 33.976562 12.703125 L 34.214844 14.519531 L 34.453125 13.089844 L 34.691406 15.914062 L 34.929688 14.257812 L 35.167969 14.894531 L 35.644531 15.625 L 35.882812 14.648438 L 36.59375 15.136719 L 36.832031 14.503906 L 37.070312 11.921875 L 37.308594 12.894531 L 37.546875 14.84375 L 37.785156 15.039062 L 38.023438 12.894531 L 38.261719 12.960938 L 38.5 14.257812 L 39.214844 14.257812 L 39.453125 14.355469 L 39.6875 14.257812 L 39.925781 14.648438 L 40.164062 14.453125 L 40.402344 13.480469 L 40.640625 13.480469 L 41.355469 13.285156 L 41.59375 13.578125 L 42.070312 13.285156 L 42.308594 14.355469 L 42.546875 11.53125 L 42.785156 13.546875 L 43.023438 11.144531 L 43.496094 11.335938 L 43.734375 13.933594 L 43.972656 13.089844 L 44.210938 12.117188 L 44.449219 11.921875 L 44.6875 11.242188 L 44.925781 12.507812 L 45.402344 10.851562 L 45.640625 11.335938 L 45.878906 12.164062 L 46.117188 13.480469 L 46.355469 14.84375 L 46.828125 12.507812 L 47.066406 12.183594 L 47.542969 13.480469 L 47.78125 10.558594 L 48.496094 10.753906 L 48.972656 15.039062 L 49.449219 10.949219 L 50.875 9.585938 L 51.113281 9.390625 L 51.828125 12.3125 L 53.96875 11.921875 L 56.113281 12.117188 L 58.015625 11.53125 L 59.921875 9.585938 L 68.726562 9.585938 "/>
</g>
</svg>
