<?xml version="1.0" encoding="UTF-8"?>
<svg xmlns="http://www.w3.org/2000/svg" xmlns:xlink="http://www.w3.org/1999/xlink" width="72pt" height="18pt" viewBox="0 0 72 18" version="1.1">
<g id="surface209">
<rect x="0" y="0" width="72" height="18" style="fill:rgb(100%,100%,100%);fill-opacity:1;stroke:none;"/>
<path style=" stroke:none;fill-rule:nonzero;fill:rgb(60%,60%,60%);fill-opacity:0.4;" d="M 3.273438 6.734375 L 3.691406 6.8125 L 4.109375 6.882812 L 4.527344 6.945312 L 4.949219 7 L 5.367188 7.046875 L 5.785156 7.085938 L 6.203125 7.117188 L 6.621094 7.136719 L 7.042969 7.152344 L 7.460938 7.160156 L 7.878906 7.15625 L 8.296875 7.144531 L 8.71875 7.128906 L 9.136719 7.105469 L 9.554688 7.074219 L 10.390625 7.003906 L 10.8125 6.964844 L 11.648438 6.894531 L 12.066406 6.863281 L 12.484375 6.839844 L 12.90625 6.816406 L 13.324219 6.785156 L 13.742188 6.75 L 14.160156 6.707031 L 14.578125 6.652344 L 15 6.566406 L 15.417969 6.445312 L 16.253906 6.15625 L 16.675781 6.035156 L 17.09375 5.964844 L 17.511719 5.925781 L 17.929688 5.898438 L 18.347656 5.863281 L 18.769531 5.816406 L 19.1875 5.78125 L 19.605469 5.785156 L 20.441406 5.863281 L 20.863281 5.875 L 21.28125 5.851562 L 21.699219 5.816406 L 22.117188 5.777344 L 22.535156 5.726562 L 22.957031 5.65625 L 23.792969 5.507812 L 24.210938 5.441406 L 24.632812 5.375 L 25.46875 5.226562 L 26.304688 5.0625 L 26.726562 4.980469 L 27.144531 4.890625 L 27.5625 4.796875 L 27.980469 4.699219 L 28.398438 4.597656 L 28.820312 4.488281 L 29.238281 4.371094 L 29.65625 4.246094 L 30.074219 4.117188 L 30.492188 3.976562 L 30.914062 3.824219 L 31.332031 3.664062 L 31.75 3.492188 L 32.167969 3.308594 L 32.589844 3.109375 L 33.007812 2.902344 L 33.425781 2.679688 L 33.84375 2.449219 L 34.261719 2.207031 L 34.683594 1.949219 L 35.101562 1.683594 L 35.519531 1.40625 L 35.9375 1.117188 L 36.355469 0.816406 L 36.355469 5.519531 L 35.9375 5.496094 L 35.519531 5.476562 L 35.101562 5.464844 L 34.683594 5.457031 L 34.261719 5.457031 L 33.84375 5.464844 L 33.425781 5.476562 L 33.007812 5.5 L 32.589844 5.527344 L 32.167969 5.558594 L 31.75 5.597656 L 31.332031 5.644531 L 30.914062 5.695312 L 30.492188 5.75 L 30.074219 5.808594 L 28.820312 5.996094 L 28.398438 6.058594 L 27.980469 6.121094 L 27.144531 6.238281 L 26.726562 6.289062 L 26.304688 6.339844 L 25.886719 6.390625 L 25.050781 6.5 L 24.632812 6.5625 L 24.210938 6.632812 L 23.375 6.765625 L 22.957031 6.839844 L 22.535156 6.914062 L 22.117188 6.996094 L 21.699219 7.074219 L 21.28125 7.132812 L 20.863281 7.160156 L 20.441406 7.128906 L 20.023438 7.089844 L 19.605469 7.066406 L 19.1875 7.074219 L 18.769531 7.078125 L 18.347656 7.085938 L 17.929688 7.109375 L 17.511719 7.160156 L 17.09375 7.226562 L 16.675781 7.304688 L 16.253906 7.402344 L 15.835938 7.519531 L 15.417969 7.652344 L 15 7.777344 L 14.578125 7.871094 L 14.160156 7.921875 L 12.90625 8.027344 L 12.484375 8.066406 L 12.066406 8.113281 L 11.648438 8.167969 L 11.230469 8.230469 L 10.8125 8.308594 L 10.390625 8.394531 L 9.972656 8.496094 L 9.554688 8.613281 L 9.136719 8.746094 L 8.71875 8.898438 L 8.296875 9.066406 L 7.878906 9.253906 L 7.460938 9.457031 L 7.042969 9.675781 L 6.621094 9.914062 L 6.203125 10.171875 L 5.785156 10.441406 L 5.367188 10.726562 L 4.949219 11.027344 L 4.527344 11.34375 L 4.109375 11.671875 L 3.691406 12.015625 L 3.273438 12.371094 Z M 3.273438 6.734375 "/>
<path style="fill:none;stroke-width:2.133957;stroke-linecap:butt;stroke-linejoin:round;stroke:rgb(97.254902%,46.27451%,42.745098%);stroke-opacity:1;stroke-miterlimit:10;" d="M 3.273438 9.550781 L 4.109375 9.277344 L 4.527344 9.144531 L 4.949219 9.015625 L 5.367188 8.886719 L 5.785156 8.761719 L 6.621094 8.527344 L 7.042969 8.414062 L 7.878906 8.203125 L 8.296875 8.105469 L 8.71875 8.011719 L 9.136719 7.925781 L 9.554688 7.84375 L 9.972656 7.769531 L 10.390625 7.699219 L 10.8125 7.636719 L 11.230469 7.582031 L 11.648438 7.53125 L 12.066406 7.488281 L 12.484375 7.453125 L 12.90625 7.421875 L 13.324219 7.390625 L 13.742188 7.355469 L 14.160156 7.3125 L 14.578125 7.261719 L 15 7.171875 L 15.417969 7.046875 L 15.835938 6.910156 L 16.253906 6.777344 L 16.675781 6.667969 L 17.09375 6.597656 L 17.511719 6.542969 L 17.929688 6.503906 L 18.347656 6.472656 L 18.769531 6.449219 L 19.1875 6.425781 L 19.605469 6.425781 L 20.023438 6.457031 L 20.441406 6.496094 L 20.863281 6.515625 L 21.28125 6.492188 L 21.699219 6.445312 L 22.117188 6.386719 L 22.535156 6.320312 L 22.957031 6.25 L 23.375 6.175781 L 24.210938 6.035156 L 24.632812 5.96875 L 26.304688 5.703125 L 26.726562 5.636719 L 27.5625 5.488281 L 27.980469 5.410156 L 28.398438 5.328125 L 28.820312 5.242188 L 29.238281 5.152344 L 30.074219 4.964844 L 30.492188 4.863281 L 30.914062 4.761719 L 31.332031 4.652344 L 31.75 4.546875 L 32.167969 4.433594 L 32.589844 4.316406 L 33.007812 4.199219 L 33.84375 3.957031 L 34.261719 3.832031 L 34.683594 3.703125 L 35.101562 3.574219 L 35.519531 3.441406 L 36.355469 3.167969 "/>
<path style=" stroke:none;fill-rule:nonzero;fill:rgb(60%,60%,60%);fill-opacity:0.4;" d="M 24.21875 7.496094 L 24.734375 7.566406 L 25.25 7.632812 L 25.765625 7.6875 L 26.277344 7.734375 L 26.792969 7.773438 L 27.308594 7.804688 L 27.824219 7.824219 L 28.339844 7.835938 L 28.855469 7.839844 L 29.371094 7.835938 L 29.886719 7.824219 L 30.402344 7.800781 L 30.914062 7.773438 L 31.429688 7.738281 L 32.460938 7.652344 L 32.976562 7.605469 L 34.523438 7.453125 L 35.039062 7.398438 L 35.550781 7.359375 L 36.066406 7.324219 L 36.582031 7.28125 L 37.097656 7.234375 L 37.613281 7.214844 L 38.128906 7.199219 L 38.644531 7.164062 L 39.160156 7.097656 L 39.675781 7.007812 L 40.1875 6.90625 L 40.703125 6.78125 L 41.21875 6.632812 L 41.734375 6.464844 L 42.25 6.273438 L 42.765625 6.058594 L 43.28125 5.828125 L 43.796875 5.605469 L 44.3125 5.402344 L 44.828125 5.25 L 45.339844 5.152344 L 45.855469 5.078125 L 46.371094 4.996094 L 46.886719 4.890625 L 47.402344 4.78125 L 47.917969 4.679688 L 48.433594 4.554688 L 48.949219 4.414062 L 49.464844 4.269531 L 49.976562 4.117188 L 50.492188 3.964844 L 51.007812 3.816406 L 51.523438 3.679688 L 52.039062 3.554688 L 52.554688 3.445312 L 53.070312 3.351562 L 53.585938 3.273438 L 54.101562 3.207031 L 54.613281 3.160156 L 55.128906 3.121094 L 55.644531 3.101562 L 56.160156 3.09375 L 56.675781 3.09375 L 57.191406 3.105469 L 57.707031 3.128906 L 58.222656 3.160156 L 58.738281 3.199219 L 59.25 3.246094 L 59.765625 3.300781 L 60.28125 3.359375 L 60.796875 3.421875 L 61.828125 3.5625 L 62.34375 3.640625 L 62.859375 3.722656 L 63.375 3.8125 L 63.886719 3.902344 L 64.917969 4.097656 L 64.917969 9.375 L 64.402344 8.925781 L 63.886719 8.5 L 63.375 8.101562 L 62.859375 7.722656 L 62.34375 7.375 L 61.828125 7.046875 L 61.3125 6.746094 L 60.796875 6.46875 L 60.28125 6.214844 L 59.765625 5.984375 L 59.25 5.78125 L 58.738281 5.597656 L 58.222656 5.4375 L 57.707031 5.296875 L 57.191406 5.179688 L 56.675781 5.082031 L 56.160156 5.003906 L 55.644531 4.941406 L 55.128906 4.898438 L 54.613281 4.871094 L 54.101562 4.859375 L 53.585938 4.863281 L 53.070312 4.882812 L 52.554688 4.914062 L 52.039062 4.960938 L 51.523438 5.027344 L 51.007812 5.105469 L 50.492188 5.203125 L 49.976562 5.308594 L 49.464844 5.421875 L 48.949219 5.542969 L 48.433594 5.675781 L 47.917969 5.800781 L 47.402344 5.910156 L 46.371094 6.183594 L 45.855469 6.324219 L 45.339844 6.484375 L 44.828125 6.660156 L 44.3125 6.84375 L 43.796875 7.046875 L 43.28125 7.269531 L 42.765625 7.511719 L 42.25 7.765625 L 41.734375 8.023438 L 41.21875 8.265625 L 40.703125 8.464844 L 40.1875 8.597656 L 39.675781 8.648438 L 39.160156 8.621094 L 38.644531 8.5625 L 38.128906 8.511719 L 37.613281 8.496094 L 37.097656 8.519531 L 36.582031 8.574219 L 35.550781 8.667969 L 35.039062 8.722656 L 34.007812 8.847656 L 32.976562 8.980469 L 32.460938 9.054688 L 31.945312 9.132812 L 31.429688 9.214844 L 30.914062 9.308594 L 30.402344 9.410156 L 29.886719 9.523438 L 29.371094 9.648438 L 28.855469 9.789062 L 28.339844 9.941406 L 27.824219 10.105469 L 27.308594 10.285156 L 26.792969 10.480469 L 26.277344 10.691406 L 25.765625 10.914062 L 25.25 11.152344 L 24.734375 11.40625 L 24.21875 11.675781 Z M 24.21875 7.496094 "/>
<path style="fill:none;stroke-width:2.133957;stroke-linecap:butt;stroke-linejoin:round;stroke:rgb(0%,72.941176%,21.960784%);stroke-opacity:1;stroke-miterlimit:10;" d="M 24.21875 9.585938 L 25.25 9.390625 L 25.765625 9.300781 L 26.277344 9.210938 L 26.792969 9.125 L 27.308594 9.042969 L 27.824219 8.964844 L 29.371094 8.742188 L 29.886719 8.671875 L 30.402344 8.605469 L 30.914062 8.539062 L 32.460938 8.351562 L 34.523438 8.117188 L 35.039062 8.0625 L 35.550781 8.015625 L 36.582031 7.929688 L 37.097656 7.875 L 37.613281 7.855469 L 38.128906 7.855469 L 38.644531 7.863281 L 39.160156 7.859375 L 39.675781 7.828125 L 40.1875 7.75 L 40.703125 7.621094 L 41.21875 7.449219 L 41.734375 7.246094 L 42.25 7.019531 L 43.28125 6.550781 L 43.796875 6.324219 L 44.3125 6.125 L 44.828125 5.957031 L 45.339844 5.820312 L 45.855469 5.699219 L 46.371094 5.589844 L 47.402344 5.347656 L 47.917969 5.242188 L 48.433594 5.113281 L 48.949219 4.980469 L 49.464844 4.84375 L 49.976562 4.714844 L 50.492188 4.582031 L 51.007812 4.460938 L 51.523438 4.351562 L 52.039062 4.257812 L 52.554688 4.179688 L 53.070312 4.117188 L 53.585938 4.066406 L 54.101562 4.035156 L 54.613281 4.015625 L 55.128906 4.011719 L 55.644531 4.023438 L 56.160156 4.046875 L 56.675781 4.089844 L 57.191406 4.144531 L 57.707031 4.214844 L 58.222656 4.300781 L 58.738281 4.398438 L 59.25 4.515625 L 59.765625 4.644531 L 60.28125 4.785156 L 60.796875 4.945312 L 61.3125 5.117188 L 61.828125 5.304688 L 62.34375 5.507812 L 62.859375 5.722656 L 63.375 5.957031 L 63.886719 6.203125 L 64.402344 6.460938 L 64.917969 6.734375 "/>
<path style=" stroke:none;fill-rule:nonzero;fill:rgb(60%,60%,60%);fill-opacity:0.4;" d="M 24.21875 13.695312 L 24.78125 13.757812 L 25.34375 13.808594 L 25.910156 13.847656 L 26.472656 13.878906 L 27.035156 13.894531 L 27.597656 13.898438 L 28.160156 13.890625 L 28.726562 13.871094 L 29.289062 13.835938 L 29.851562 13.789062 L 30.414062 13.730469 L 30.980469 13.664062 L 31.542969 13.597656 L 32.105469 13.527344 L 32.667969 13.460938 L 33.234375 13.398438 L 34.359375 13.265625 L 34.921875 13.207031 L 35.484375 13.191406 L 36.050781 13.191406 L 36.613281 13.183594 L 37.175781 13.152344 L 37.738281 13.101562 L 38.304688 13.035156 L 38.867188 12.9375 L 39.429688 12.828125 L 39.992188 12.714844 L 40.558594 12.589844 L 41.121094 12.4375 L 41.683594 12.261719 L 42.246094 12.089844 L 42.8125 11.957031 L 43.375 11.832031 L 43.9375 11.703125 L 44.5 11.566406 L 45.0625 11.425781 L 45.628906 11.285156 L 46.191406 11.136719 L 46.753906 10.992188 L 47.316406 10.855469 L 47.882812 10.738281 L 48.445312 10.625 L 49.007812 10.507812 L 49.570312 10.394531 L 50.136719 10.285156 L 50.699219 10.175781 L 51.824219 9.972656 L 52.386719 9.875 L 52.953125 9.78125 L 53.515625 9.6875 L 54.640625 9.515625 L 55.207031 9.429688 L 55.769531 9.34375 L 56.894531 9.179688 L 57.460938 9.097656 L 58.585938 8.925781 L 59.710938 8.746094 L 60.277344 8.652344 L 61.402344 8.457031 L 61.964844 8.351562 L 62.53125 8.242188 L 63.09375 8.128906 L 64.21875 7.894531 L 64.785156 7.765625 L 65.347656 7.636719 L 65.910156 7.503906 L 66.472656 7.363281 L 67.035156 7.21875 L 67.601562 7.070312 L 68.164062 6.917969 L 68.726562 6.757812 L 68.726562 11.835938 L 68.164062 11.714844 L 67.601562 11.605469 L 67.035156 11.5 L 66.472656 11.402344 L 65.910156 11.316406 L 65.347656 11.234375 L 64.785156 11.160156 L 64.21875 11.09375 L 63.65625 11.03125 L 63.09375 10.980469 L 62.53125 10.9375 L 61.964844 10.902344 L 61.402344 10.871094 L 60.839844 10.851562 L 60.277344 10.835938 L 59.710938 10.828125 L 59.148438 10.828125 L 58.585938 10.835938 L 58.023438 10.847656 L 57.460938 10.867188 L 56.894531 10.890625 L 56.332031 10.917969 L 55.769531 10.953125 L 55.207031 10.992188 L 54.640625 11.03125 L 52.953125 11.171875 L 52.386719 11.226562 L 51.261719 11.335938 L 50.136719 11.453125 L 49.570312 11.515625 L 49.007812 11.582031 L 48.445312 11.652344 L 47.882812 11.730469 L 47.316406 11.8125 L 46.753906 11.917969 L 46.191406 12.039062 L 45.628906 12.175781 L 45.0625 12.324219 L 44.5 12.46875 L 43.9375 12.617188 L 42.8125 12.945312 L 42.246094 13.089844 L 41.683594 13.230469 L 41.121094 13.378906 L 40.558594 13.542969 L 39.992188 13.707031 L 39.429688 13.832031 L 38.867188 13.90625 L 38.304688 13.957031 L 37.738281 14.007812 L 37.175781 14.050781 L 36.613281 14.058594 L 36.050781 14.050781 L 35.484375 14.054688 L 34.921875 14.085938 L 34.359375 14.144531 L 33.234375 14.285156 L 32.667969 14.367188 L 32.105469 14.453125 L 31.542969 14.546875 L 30.980469 14.644531 L 30.414062 14.753906 L 29.851562 14.878906 L 29.289062 15.019531 L 28.726562 15.175781 L 28.160156 15.359375 L 27.597656 15.558594 L 27.035156 15.78125 L 26.472656 16.019531 L 25.910156 16.28125 L 25.34375 16.5625 L 24.78125 16.863281 L 24.21875 17.183594 Z M 24.21875 13.695312 "/>
<path style="fill:none;stroke-width:2.133957;stroke-linecap:butt;stroke-linejoin:round;stroke:rgb(38.039216%,61.176471%,100%);stroke-opacity:1;stroke-miterlimit:10;" d="M 24.21875 15.4375 L 24.78125 15.308594 L 25.34375 15.1875 L 25.910156 15.066406 L 26.472656 14.949219 L 27.035156 14.835938 L 28.160156 14.625 L 28.726562 14.523438 L 29.289062 14.425781 L 29.851562 14.332031 L 30.414062 14.242188 L 30.980469 14.15625 L 31.542969 14.070312 L 32.667969 13.914062 L 33.234375 13.84375 L 33.796875 13.773438 L 34.359375 13.707031 L 34.921875 13.648438 L 35.484375 13.621094 L 36.613281 13.621094 L 37.175781 13.601562 L 37.738281 13.554688 L 38.304688 13.496094 L 38.867188 13.421875 L 39.429688 13.332031 L 39.992188 13.210938 L 40.558594 13.066406 L 41.683594 12.746094 L 42.246094 12.589844 L 42.8125 12.449219 L 43.375 12.308594 L 43.9375 12.160156 L 44.5 12.015625 L 45.0625 11.875 L 45.628906 11.730469 L 46.191406 11.585938 L 46.753906 11.453125 L 47.316406 11.335938 L 47.882812 11.234375 L 48.445312 11.136719 L 49.570312 10.957031 L 50.136719 10.871094 L 50.699219 10.785156 L 51.261719 10.703125 L 51.824219 10.625 L 52.386719 10.550781 L 52.953125 10.476562 L 53.515625 10.40625 L 54.640625 10.273438 L 55.207031 10.210938 L 55.769531 10.148438 L 56.332031 10.089844 L 56.894531 10.035156 L 57.460938 9.980469 L 58.585938 9.878906 L 59.148438 9.832031 L 59.710938 9.789062 L 60.277344 9.746094 L 60.839844 9.703125 L 61.964844 9.625 L 62.53125 9.589844 L 63.09375 9.554688 L 64.21875 9.492188 L 64.785156 9.460938 L 65.347656 9.433594 L 65.910156 9.410156 L 66.472656 9.382812 L 67.035156 9.359375 L 67.601562 9.335938 L 68.726562 9.296875 "/>
</g>
</svg>
