<?xml version="1.0" encoding="UTF-8"?>
<svg xmlns="http://www.w3.org/2000/svg" xmlns:xlink="http://www.w3.org/1999/xlink" width="72pt" height="18pt" viewBox="0 0 72 18" version="1.1">
<g id="surface199">
<rect x="0" y="0" width="72" height="18" style="fill:rgb(100%,100%,100%);fill-opacity:1;stroke:none;"/>
<path style=" stroke:none;fill-rule:nonzero;fill:rgb(97.254902%,46.27451%,42.745098%);fill-opacity:1;" d="M 3.273438 17.183594 L 5.457031 17.183594 L 5.457031 16.636719 L 3.273438 16.636719 Z M 3.273438 17.183594 "/>
<path style=" stroke:none;fill-rule:nonzero;fill:rgb(97.254902%,46.27451%,42.745098%);fill-opacity:1;" d="M 5.453125 17.183594 L 7.636719 17.183594 L 7.636719 16.09375 L 5.453125 16.09375 Z M 5.453125 17.183594 "/>
<path style=" stroke:none;fill-rule:nonzero;fill:rgb(97.254902%,46.27451%,42.745098%);fill-opacity:1;" d="M 7.636719 17.183594 L 9.820312 17.183594 L 9.820312 13.910156 L 7.636719 13.910156 Z M 7.636719 17.183594 "/>
<path style=" stroke:none;fill-rule:nonzero;fill:rgb(97.254902%,46.27451%,42.745098%);fill-opacity:1;" d="M 9.816406 17.183594 L 12 17.183594 L 12 13.367188 L 9.816406 13.367188 Z M 9.816406 17.183594 "/>
<path style=" stroke:none;fill-rule:nonzero;fill:rgb(97.254902%,46.27451%,42.745098%);fill-opacity:1;" d="M 12 17.183594 L 14.183594 17.183594 L 14.183594 7.367188 L 12 7.367188 Z M 12 17.183594 "/>
<path style=" stroke:none;fill-rule:nonzero;fill:rgb(97.254902%,46.27451%,42.745098%);fill-opacity:1;" d="M 14.183594 17.183594 L 16.367188 17.183594 L 16.367188 10.09375 L 14.183594 10.09375 Z M 14.183594 17.183594 "/>
<path style=" stroke:none;fill-rule:nonzero;fill:rgb(97.254902%,46.27451%,42.745098%);fill-opacity:1;" d="M 16.363281 17.183594 L 18.546875 17.183594 L 18.546875 5.183594 L 16.363281 5.183594 Z M 16.363281 17.183594 "/>
<path style=" stroke:none;fill-rule:nonzero;fill:rgb(97.254902%,46.27451%,42.745098%);fill-opacity:1;" d="M 18.546875 17.183594 L 20.730469 17.183594 L 20.730469 7.367188 L 18.546875 7.367188 Z M 18.546875 17.183594 "/>
<path style=" stroke:none;fill-rule:nonzero;fill:rgb(97.254902%,46.27451%,42.745098%);fill-opacity:1;" d="M 20.726562 17.183594 L 22.910156 17.183594 L 22.910156 6.820312 L 20.726562 6.820312 Z M 20.726562 17.183594 "/>
<path style=" stroke:none;fill-rule:nonzero;fill:rgb(97.254902%,46.27451%,42.745098%);fill-opacity:1;" d="M 22.910156 16.089844 L 25.09375 16.089844 L 25.09375 5.726562 L 22.910156 5.726562 Z M 22.910156 16.089844 "/>
<path style=" stroke:none;fill-rule:nonzero;fill:rgb(97.254902%,46.27451%,42.745098%);fill-opacity:1;" d="M 25.089844 16.089844 L 27.273438 16.089844 L 27.273438 10.089844 L 25.089844 10.089844 Z M 25.089844 16.089844 "/>
<path style=" stroke:none;fill-rule:nonzero;fill:rgb(97.254902%,46.27451%,42.745098%);fill-opacity:1;" d="M 27.273438 13.363281 L 29.457031 13.363281 L 29.457031 9 L 27.273438 9 Z M 27.273438 13.363281 "/>
<path style=" stroke:none;fill-rule:nonzero;fill:rgb(97.254902%,46.27451%,42.745098%);fill-opacity:1;" d="M 29.453125 11.183594 L 31.636719 11.183594 L 31.636719 10.09375 L 29.453125 10.09375 Z M 29.453125 11.183594 "/>
<path style=" stroke:none;fill-rule:nonzero;fill:rgb(97.254902%,46.27451%,42.745098%);fill-opacity:1;" d="M 31.636719 13.363281 L 33.820312 13.363281 L 33.820312 12.273438 L 31.636719 12.273438 Z M 31.636719 13.363281 "/>
<path style=" stroke:none;fill-rule:nonzero;fill:rgb(97.254902%,46.27451%,42.745098%);fill-opacity:1;" d="M 33.816406 3.546875 L 36 3.546875 L 36 2.457031 L 33.816406 2.457031 Z M 33.816406 3.546875 "/>
<path style=" stroke:none;fill-rule:nonzero;fill:rgb(97.254902%,46.27451%,42.745098%);fill-opacity:1;" d="M 36 1.363281 L 38.183594 1.363281 L 38.183594 0.816406 L 36 0.816406 Z M 36 1.363281 "/>
<path style=" stroke:none;fill-rule:nonzero;fill:rgb(0%,72.941176%,21.960784%);fill-opacity:1;" d="M 22.910156 16.636719 L 25.09375 16.636719 L 25.09375 16.089844 L 22.910156 16.089844 Z M 22.910156 16.636719 "/>
<path style=" stroke:none;fill-rule:nonzero;fill:rgb(0%,72.941176%,21.960784%);fill-opacity:1;" d="M 27.273438 15 L 29.457031 15 L 29.457031 13.363281 L 27.273438 13.363281 Z M 27.273438 15 "/>
<path style=" stroke:none;fill-rule:nonzero;fill:rgb(0%,72.941176%,21.960784%);fill-opacity:1;" d="M 29.453125 12.273438 L 31.636719 12.273438 L 31.636719 11.183594 L 29.453125 11.183594 Z M 29.453125 12.273438 "/>
<path style=" stroke:none;fill-rule:nonzero;fill:rgb(0%,72.941176%,21.960784%);fill-opacity:1;" d="M 33.816406 7.910156 L 36 7.910156 L 36 3.546875 L 33.816406 3.546875 Z M 33.816406 7.910156 "/>
<path style=" stroke:none;fill-rule:nonzero;fill:rgb(0%,72.941176%,21.960784%);fill-opacity:1;" d="M 36 6.816406 L 38.183594 6.816406 L 38.183594 1.363281 L 36 1.363281 Z M 36 6.816406 "/>
<path style=" stroke:none;fill-rule:nonzero;fill:rgb(0%,72.941176%,21.960784%);fill-opacity:1;" d="M 38.183594 11.183594 L 40.367188 11.183594 L 40.367188 9.546875 L 38.183594 9.546875 Z M 38.183594 11.183594 "/>
<path style=" stroke:none;fill-rule:nonzero;fill:rgb(0%,72.941176%,21.960784%);fill-opacity:1;" d="M 40.363281 10.089844 L 42.546875 10.089844 L 42.546875 9 L 40.363281 9 Z M 40.363281 10.089844 "/>
<path style=" stroke:none;fill-rule:nonzero;fill:rgb(0%,72.941176%,21.960784%);fill-opacity:1;" d="M 42.546875 11.183594 L 44.730469 11.183594 L 44.730469 7.367188 L 42.546875 7.367188 Z M 42.546875 11.183594 "/>
<path style=" stroke:none;fill-rule:nonzero;fill:rgb(0%,72.941176%,21.960784%);fill-opacity:1;" d="M 44.726562 9 L 46.910156 9 L 46.910156 3.546875 L 44.726562 3.546875 Z M 44.726562 9 "/>
<path style=" stroke:none;fill-rule:nonzero;fill:rgb(0%,72.941176%,21.960784%);fill-opacity:1;" d="M 46.910156 13.910156 L 49.09375 13.910156 L 49.09375 8.457031 L 46.910156 8.457031 Z M 46.910156 13.910156 "/>
<path style=" stroke:none;fill-rule:nonzero;fill:rgb(0%,72.941176%,21.960784%);fill-opacity:1;" d="M 49.089844 15.546875 L 51.273438 15.546875 L 51.273438 12.273438 L 49.089844 12.273438 Z M 49.089844 15.546875 "/>
<path style=" stroke:none;fill-rule:nonzero;fill:rgb(0%,72.941176%,21.960784%);fill-opacity:1;" d="M 51.273438 16.636719 L 53.457031 16.636719 L 53.457031 15 L 51.273438 15 Z M 51.273438 16.636719 "/>
<path style=" stroke:none;fill-rule:nonzero;fill:rgb(0%,72.941176%,21.960784%);fill-opacity:1;" d="M 53.453125 16.636719 L 55.636719 16.636719 L 55.636719 16.089844 L 53.453125 16.089844 Z M 53.453125 16.636719 "/>
<path style=" stroke:none;fill-rule:nonzero;fill:rgb(0%,72.941176%,21.960784%);fill-opacity:1;" d="M 57.816406 16.636719 L 60 16.636719 L 60 16.089844 L 57.816406 16.089844 Z M 57.816406 16.636719 "/>
<path style=" stroke:none;fill-rule:nonzero;fill:rgb(0%,72.941176%,21.960784%);fill-opacity:1;" d="M 62.183594 17.183594 L 64.367188 17.183594 L 64.367188 16.636719 L 62.183594 16.636719 Z M 62.183594 17.183594 "/>
<path style=" stroke:none;fill-rule:nonzero;fill:rgb(38.039216%,61.176471%,100%);fill-opacity:1;" d="M 22.910156 17.183594 L 25.09375 17.183594 L 25.09375 16.636719 L 22.910156 16.636719 Z M 22.910156 17.183594 "/>
<path style=" stroke:none;fill-rule:nonzero;fill:rgb(38.039216%,61.176471%,100%);fill-opacity:1;" d="M 25.089844 17.183594 L 27.273438 17.183594 L 27.273438 16.09375 L 25.089844 16.09375 Z M 25.089844 17.183594 "/>
<path style=" stroke:none;fill-rule:nonzero;fill:rgb(38.039216%,61.176471%,100%);fill-opacity:1;" d="M 27.273438 17.183594 L 29.457031 17.183594 L 29.457031 15 L 27.273438 15 Z M 27.273438 17.183594 "/>
<path style=" stroke:none;fill-rule:nonzero;fill:rgb(38.039216%,61.176471%,100%);fill-opacity:1;" d="M 29.453125 17.183594 L 31.636719 17.183594 L 31.636719 12.273438 L 29.453125 12.273438 Z M 29.453125 17.183594 "/>
<path style=" stroke:none;fill-rule:nonzero;fill:rgb(38.039216%,61.176471%,100%);fill-opacity:1;" d="M 31.636719 17.183594 L 33.820312 17.183594 L 33.820312 13.367188 L 31.636719 13.367188 Z M 31.636719 17.183594 "/>
<path style=" stroke:none;fill-rule:nonzero;fill:rgb(38.039216%,61.176471%,100%);fill-opacity:1;" d="M 33.816406 17.183594 L 36 17.183594 L 36 7.910156 L 33.816406 7.910156 Z M 33.816406 17.183594 "/>
<path style=" stroke:none;fill-rule:nonzero;fill:rgb(38.039216%,61.176471%,100%);fill-opacity:1;" d="M 36 17.183594 L 38.183594 17.183594 L 38.183594 6.820312 L 36 6.820312 Z M 36 17.183594 "/>
<path style=" stroke:none;fill-rule:nonzero;fill:rgb(38.039216%,61.176471%,100%);fill-opacity:1;" d="M 38.183594 17.183594 L 40.367188 17.183594 L 40.367188 11.183594 L 38.183594 11.183594 Z M 38.183594 17.183594 "/>
<path style=" stroke:none;fill-rule:nonzero;fill:rgb(38.039216%,61.176471%,100%);fill-opacity:1;" d="M 40.363281 17.183594 L 42.546875 17.183594 L 42.546875 10.09375 L 40.363281 10.09375 Z M 40.363281 17.183594 "/>
<path style=" stroke:none;fill-rule:nonzero;fill:rgb(38.039216%,61.176471%,100%);fill-opacity:1;" d="M 42.546875 17.183594 L 44.730469 17.183594 L 44.730469 11.183594 L 42.546875 11.183594 Z M 42.546875 17.183594 "/>
<path style=" stroke:none;fill-rule:nonzero;fill:rgb(38.039216%,61.176471%,100%);fill-opacity:1;" d="M 44.726562 17.183594 L 46.910156 17.183594 L 46.910156 9 L 44.726562 9 Z M 44.726562 17.183594 "/>
<path style=" stroke:none;fill-rule:nonzero;fill:rgb(38.039216%,61.176471%,100%);fill-opacity:1;" d="M 46.910156 17.183594 L 49.09375 17.183594 L 49.09375 13.910156 L 46.910156 13.910156 Z M 46.910156 17.183594 "/>
<path style=" stroke:none;fill-rule:nonzero;fill:rgb(38.039216%,61.176471%,100%);fill-opacity:1;" d="M 49.089844 17.183594 L 51.273438 17.183594 L 51.273438 15.546875 L 49.089844 15.546875 Z M 49.089844 17.183594 "/>
<path style=" stroke:none;fill-rule:nonzero;fill:rgb(38.039216%,61.176471%,100%);fill-opacity:1;" d="M 51.273438 17.183594 L 53.457031 17.183594 L 53.457031 16.636719 L 51.273438 16.636719 Z M 51.273438 17.183594 "/>
<path style=" stroke:none;fill-rule:nonzero;fill:rgb(38.039216%,61.176471%,100%);fill-opacity:1;" d="M 53.453125 17.183594 L 55.636719 17.183594 L 55.636719 16.636719 L 53.453125 16.636719 Z M 53.453125 17.183594 "/>
<path style=" stroke:none;fill-rule:nonzero;fill:rgb(38.039216%,61.176471%,100%);fill-opacity:1;" d="M 55.636719 17.183594 L 57.820312 17.183594 L 57.820312 16.636719 L 55.636719 16.636719 Z M 55.636719 17.183594 "/>
<path style=" stroke:none;fill-rule:nonzero;fill:rgb(38.039216%,61.176471%,100%);fill-opacity:1;" d="M 57.816406 17.183594 L 60 17.183594 L 60 16.636719 L 57.816406 16.636719 Z M 57.816406 17.183594 "/>
<path style=" stroke:none;fill-rule:nonzero;fill:rgb(38.039216%,61.176471%,100%);fill-opacity:1;" d="M 66.546875 17.183594 L 68.730469 17.183594 L 68.730469 16.636719 L 66.546875 16.636719 Z M 66.546875 17.183594 "/>
</g>
</svg>
